<svg xmlns="http://www.w3.org/2000/svg" xmlns:xlink="http://www.w3.org/1999/xlink" xmlns:xodm="http://www.corel.com/coreldraw/odm/2003" xml:space="preserve" width="46.7744mm" height="7.3834mm" style="shape-rendering:geometricPrecision; text-rendering:geometricPrecision; image-rendering:optimizeQuality; fill-rule:evenodd; clip-rule:evenodd" viewBox="0 0 4178.47 659.58">
 <defs>
  <style type="text/css">
   <![CDATA[
    .fil0 {fill:none}
    .fil3 {fill:#072258;fill-rule:nonzero}
    .fil1 {fill:#0F6F91;fill-rule:nonzero}
    .fil4 {fill:#274C90;fill-rule:nonzero}
    .fil2 {fill:#3B9CC8;fill-rule:nonzero}
   ]]>
  </style>
 </defs>
 <g id="Capa_x0020_1">
  <metadata id="CorelCorpID_0Corel-Layer"></metadata>
  <rect class="fil0" y="-0" width="4178.47" height="659.58"></rect>
  <g id="_2264642144896">
   <path class="fil1" d="M769.05 296c0,0 128.54,-164.48 230.03,-97.52 83.93,54.29 216.79,335.69 231.66,388.85 -81,-135.21 -203.15,-297.85 -268.11,-329.71 -70.44,-34.54 -193.57,38.38 -193.57,38.38z"></path>
   <path class="fil2" d="M475.94 65.65c9.53,74.95 141.37,378.46 237.84,422.3 0,0 68.6,54.45 206.9,-99.1 0,0 -134.33,69.55 -186.67,34.82 -99.09,-69.69 -236.46,-306.2 -258.07,-358.03z"></path>
   <path class="fil3" d="M10.36 514.52c73.76,-61.1 715.52,-565.61 981.28,-488.38 179.45,74.96 247.59,336.18 247.59,336.18 0,0 -159,-232.67 -295.52,-226.92 -68.5,2.59 -152.79,15.15 -256.45,58.35 -224.88,74.96 -676.91,320.77 -676.91,320.77z"></path>
   <path class="fil4" d="M467.82 300.97c6.48,18.48 95.55,368.07 349.74,336.19 229.58,-29 729.8,-393.19 808.9,-464.8 -337,221.06 -780.62,425.02 -928.83,364.87 0,0 -101.79,-37.01 -229.81,-236.26z"></path>
   <path class="fil3" d="M1884.3 213.18l-66.74 0c-7,0 -8.83,3.35 -8.83,8.83l0 23.77c0,5.49 1.83,8.84 8.83,8.84l27.43 0c0,23.46 -14.02,32.61 -33.82,32.61 -20.12,0 -33.53,-11.27 -33.53,-30.78l0 -61.26c0,-19.5 13.41,-32.91 33.53,-32.91 20.41,0 31.39,9.15 34.74,18.59 1.52,4.27 0.3,10.36 8.83,10.36l29.56 0c7.01,0 8.83,-1.22 8.83,-8.53 0,-40.84 -43.88,-62.78 -81.97,-62.78 -35.97,0 -81.98,20.42 -81.98,68.57l0 74.97c0,47.85 46.02,66.13 81.98,66.13 34.74,0 79.23,-19.51 81.97,-63.39l0 -44.19c0,-5.49 -1.82,-8.83 -8.83,-8.83l0 0z"></path>
   <path id="1" class="fil3" d="M2084.68 315.23l-42.97 -62.58c18.89,-6.4 42.36,-28.69 42.36,-60.75 0,-19.55 -6.41,-36.93 -17.68,-47.9 -12.8,-12.8 -27.43,-19.5 -60.65,-19.5l-76.79 0c-7.01,0 -8.54,3.35 -8.54,8.83l0 182.8c0,7.06 3.06,8.89 8.54,8.89l30.17 0c5.49,0 8.83,-1.83 8.83,-8.89l0 -148.97 40.53 0c15.85,0 28.04,10.06 28.04,25.95 0,14.33 -14.02,24.74 -28.95,24.74l-6.09 0c-7.01,0 -8.84,3.35 -8.84,8.84l0 24.42c0,8.54 0.62,11.89 3.36,15.54l32.91 49.17c4.27,6.45 7.92,9.19 15.24,9.19l35.96 0c5.79,0 7.32,-5.54 4.57,-9.8z"></path>
   <path id="2" class="fil3" d="M2261.59 124.5l-30.18 0c-5.49,0 -8.83,1.83 -8.83,8.83l0 123.73c0,19.2 -12.8,30.17 -32.91,30.17 -20.12,0 -32.62,-10.97 -32.62,-30.17l0 -123.73c0,-7 -3.35,-8.83 -8.83,-8.83l-30.17 0c-5.49,0 -8.83,1.83 -8.83,8.83l0 130.43c0,47.85 44.18,65.83 80.45,65.83 36.26,0 80.76,-17.98 80.76,-65.83l0 -130.43c0,-7 -3.35,-8.83 -8.83,-8.83z"></path>
   <path id="3" class="fil3" d="M2378.76 124.5l-68.56 0c-7.01,0 -8.84,3.35 -8.84,8.83l0 182.85c0,7 3.36,8.83 8.84,8.83l30.17 0c5.49,0 8.83,-1.83 8.83,-8.83l0 -50.59 29.26 0c52.12,0 80.14,-28.04 80.14,-70.4 0,-42.05 -27.42,-70.7 -79.84,-70.7zm-0.3 99.95l-29.26 0 0 -56.99 29.26 0c23.77,0 34.13,12.8 34.13,28.65 0,15.23 -10.36,28.34 -34.13,28.34z"></path>
   <path id="4" class="fil3" d="M2638.55 188.8c0,-48.15 -45.71,-68.88 -81.97,-68.88 -36.27,0 -81.37,20.73 -81.37,68.88l0 71.92c0,48.15 45.1,68.88 81.37,68.88 36.26,0 81.97,-20.73 81.97,-68.88l0 -71.92zm-47.85 67.65c0,19.51 -14.02,30.78 -34.12,30.78 -19.81,0 -33.83,-11.27 -33.83,-30.78l0 -63.38c0,-19.51 14.02,-30.78 33.83,-30.78 20.11,0 34.12,11.27 34.12,30.78l0 63.38z"></path>
   <path id="5" class="fil3" d="M2891.36 221.11c2.74,-1.21 22.24,-10.97 22.24,-41.74 0,-28.65 -21.33,-55.16 -71,-55.16l-85.33 0c-7.01,0 -8.84,3.35 -8.84,8.83l0 183.16c0,5.49 1.83,8.83 8.84,8.83l89.59 0c42.36,0 72.53,-19.8 72.53,-58.51 0,-32.91 -25.59,-44.5 -28.03,-45.41l0 0zm-43.89 60.65l-51.2 0 0 -114.28 46.33 0c15.85,0 25.29,3.31 25.29,16.91 0,11.78 -7.62,18.13 -25.29,18.13l0 0 -3.97 0c-7,0 -8.83,3.35 -8.83,8.83l0 23.16c0,5.49 1.83,8.83 8.83,8.83l7.01 0c14.62,0 25.29,4.27 25.29,18.59 0,13.72 -8.53,19.81 -23.47,19.81z"></path>
   <path id="6" class="fil3" d="M3110.32 315.23l-42.97 -62.58c18.89,-6.4 42.36,-28.69 42.36,-60.75 0,-19.55 -6.41,-36.93 -17.68,-47.9 -12.8,-12.8 -27.43,-19.5 -60.65,-19.5l-76.79 0c-7.01,0 -8.54,3.35 -8.54,8.83l0 182.8c0,7.06 3.06,8.89 8.54,8.89l30.17 0c5.49,0 8.83,-1.83 8.83,-8.89l0 -148.97 40.53 0c15.85,0 28.04,10.06 28.04,25.95 0,14.33 -14.02,24.74 -28.95,24.74l-6.09 0c-7.01,0 -8.84,3.35 -8.84,8.84l0 24.42c0,8.54 0.62,11.89 3.36,15.54l32.91 49.17c4.27,6.45 7.92,9.19 15.24,9.19l35.96 0c5.79,0 7.32,-5.54 4.57,-9.8z"></path>
   <path id="7" class="fil3" d="M3309.77 316.5l-67.35 -182.54c-2.74,-6.41 -5.79,-9.45 -12.5,-9.45l-29.26 0c-6.69,0 -10.05,3.05 -12.49,9.45l-67.65 182.54c-1.52,3.65 -1.52,8.53 5.18,8.53l32 0c6.71,0 9.14,-1.83 11.58,-9.14l8.54 -24.08 74.66 0 8.53 24.08c2.44,7.31 4.88,9.14 11.58,9.14l32 0c6.71,0 6.71,-4.88 5.18,-8.53zm-117.32 -67.35l22.85 -67.36 22.85 67.36 -45.7 0z"></path>
   <path id="8" class="fil3" d="M3472.96 124.5l-32.3 0c-8.23,0 -10.36,2.44 -12.8,9.76l-41.14 126.16 -41.44 -126.16c-2.44,-7.32 -4.57,-9.76 -12.5,-9.76l-33.83 0c-5.79,0 -7,4.88 -5.49,8.83l65.53 182.55c3.65,7.92 5.79,9.14 12.49,9.14l29.26 0c6.71,0 8.84,-1.21 12.5,-9.14l65.21 -182.55c1.53,-3.96 0.3,-8.83 -5.49,-8.83z"></path>
   <path id="9" class="fil3" d="M3655.36 316.5l-67.35 -182.54c-2.74,-6.41 -5.79,-9.45 -12.5,-9.45l-29.26 0c-6.7,0 -10.06,3.05 -12.5,9.45l-67.65 182.54c-1.52,3.65 -1.52,8.53 5.18,8.53l32 0c6.71,0 9.14,-1.83 11.58,-9.14l8.54 -24.08 74.66 0 8.53 24.08c2.44,7.31 4.88,9.14 11.58,9.14l32 0c6.71,0 6.71,-4.88 5.18,-8.53zm-117.33 -67.35l22.86 -67.36 22.85 67.36 -45.71 0z"></path>
   <path id="10" class="fil3" d="M3795.7 119.62l-92.33 0c-7.32,0 -8.84,3.35 -8.84,8.83l0 25.3c0,5.49 1.53,8.83 8.84,8.83l53.33 0 0 90.21c0,18.89 -7.62,29.86 -27.74,29.86 -13.71,0 -23.47,-7.32 -24.38,-25.29 0,-1.53 -0.61,-6.41 -7.62,-6.41l-32.3 0c-7,0 -7.32,6.71 -7.32,8.23 0,42.97 31.09,65.83 71.62,65.83 36.27,0 75.58,-17.98 75.58,-65.53l0 -131.04c0,-5.49 -1.82,-8.83 -8.83,-8.83z"></path>
   <path id="11" class="fil3" d="M4008.26 316.5l-67.34 -182.54c-2.74,-6.41 -5.79,-9.45 -12.5,-9.45l-29.26 0c-6.7,0 -10.06,3.05 -12.5,9.45l-67.65 182.54c-1.52,3.65 -1.52,8.53 5.18,8.53l32 0c6.71,0 9.14,-1.83 11.58,-9.14l8.54 -24.08 74.66 0 8.52 24.08c2.44,7.31 4.88,9.14 11.58,9.14l32 0c6.71,0 6.71,-4.88 5.18,-8.53zm-117.32 -67.35l22.86 -67.36 22.85 67.36 -45.71 0z"></path>
   <path id="12" class="fil3" d="M4159.27 282.36l-87.77 0 0 -149.02c0,-7 -3.35,-8.83 -8.83,-8.83l-30.17 0c-5.49,0 -8.84,1.83 -8.84,8.83l0 182.85c0,5.49 1.83,8.83 8.84,8.83l126.77 0c7.01,0 8.83,-3.35 8.83,-8.83l0 -25c0,-5.49 -1.82,-8.83 -8.83,-8.83z"></path>
   <path class="fil1" d="M2088.09 392.98l0 11.26c-4.85,-1.87 -9.48,-3.22 -13.89,-4.08 -4.38,-0.87 -8.71,-1.3 -12.91,-1.3 -16.03,0 -28.61,4.71 -37.73,14.1 -9.09,9.39 -13.65,22.36 -13.65,38.92 0,15.67 4.56,27.99 13.65,36.97 9.12,8.97 21.68,13.44 37.7,13.44 4.74,0 9.27,-0.41 13.6,-1.21 4.3,-0.8 8.48,-2.05 12.53,-3.73l0 11.52c-3.82,1.33 -8.06,2.31 -12.68,2.97 -4.63,0.62 -9.84,0.95 -15.62,0.95 -18.8,0 -33.79,-5.54 -44.93,-16.59 -11.13,-11.05 -16.71,-25.89 -16.71,-44.51 0,-19.22 5.78,-34.51 17.36,-45.88 11.59,-11.38 27.13,-17.06 46.61,-17.06 5.22,0 10.08,0.36 14.54,1.04 4.5,0.71 8.53,1.78 12.11,3.22z"></path>
   <path id="1" class="fil1" d="M2155.42 397.07c-12.68,0 -22.81,4.86 -30.36,14.54 -7.58,9.68 -11.37,22.65 -11.37,38.89 0,16.27 3.79,29.27 11.37,38.98 7.56,9.71 17.69,14.57 30.36,14.57 12.64,0 22.77,-4.86 30.39,-14.57 7.61,-9.72 11.4,-22.72 11.4,-38.98 0,-16.23 -3.79,-29.2 -11.4,-38.89 -7.62,-9.68 -17.75,-14.54 -30.39,-14.54zm0 -10.13c16.46,0 29.61,5.74 39.39,17.21 9.78,11.5 14.67,27.01 14.67,46.53 0,19.55 -4.89,35.1 -14.67,46.6 -9.77,11.51 -22.92,17.27 -39.39,17.27 -16.56,0 -29.74,-5.78 -39.51,-17.3 -9.78,-11.55 -14.67,-27.07 -14.67,-46.56 0,-19.46 4.89,-34.98 14.67,-46.47 9.77,-11.52 22.95,-17.27 39.51,-17.27z"></path>
   <path id="2" class="fil1" d="M2235.75 389.08l14.57 0 60.31 103.46c0.42,0.63 0.92,1.69 1.57,3.11 0.63,1.46 1.36,3.26 2.16,5.4 -0.36,-2.2 -0.63,-4.23 -0.83,-6.07 -0.21,-1.87 -0.29,-3.49 -0.29,-4.95l0 -100.94 10.67 0 0 123.33 -13.81 0 -61.16 -104.32c-0.69,-1.21 -1.34,-2.55 -1.93,-3.99 -0.56,-1.46 -1.13,-3.17 -1.63,-5.13 0.36,2.84 0.59,5.18 0.77,7.08 0.18,1.87 0.27,3.14 0.27,3.77l0 102.6 -10.67 0 0 -123.33z"></path>
   <path id="3" class="fil1" d="M2414.05 392.33l-1.65 11.55c-3.47,-1.8 -7.02,-3.14 -10.67,-4.06 -3.64,-0.88 -7.43,-1.33 -11.37,-1.33 -8.44,0 -15.04,1.72 -19.81,5.13 -4.77,3.4 -7.17,8.08 -7.17,14.06 0,7.49 8.03,15.88 24.11,25.07 2.2,1.21 3.89,2.19 5.04,2.87 11.17,6.49 18.46,12 21.8,16.59 3.35,4.56 5.04,10.1 5.04,16.64 0,10.26 -3.64,18.55 -10.9,24.91 -7.26,6.37 -16.77,9.53 -28.5,9.53 -4.82,0 -9.59,-0.47 -14.34,-1.42 -4.73,-0.95 -9.35,-2.37 -13.8,-4.21l1.39 -12.85c5.04,2.73 9.75,4.74 14.19,6.05 4.41,1.3 8.65,1.96 12.71,1.96 8.14,0 14.69,-2.07 19.61,-6.25 4.91,-4.17 7.37,-9.71 7.37,-16.68 0,-8.32 -7.82,-16.96 -23.42,-25.94 -2.43,-1.39 -4.27,-2.46 -5.54,-3.2 -10.78,-6.31 -17.87,-11.77 -21.33,-16.32 -3.43,-4.56 -5.15,-9.95 -5.15,-16.14 0,-9.48 3.41,-16.86 10.19,-22.15 6.82,-5.31 16.41,-7.94 28.79,-7.94 3.76,0 7.55,0.36 11.4,1.04 3.85,0.68 7.85,1.75 12.02,3.11z"></path>
   <path id="4" class="fil1" d="M2444.24 389.08l11.37 0 0 72.8c0,14.25 2.7,24.85 8.06,31.85 5.39,7.02 13.53,10.51 24.47,10.51 10.99,0 19.31,-3.73 24.93,-11.23 5.66,-7.49 8.48,-18.57 8.48,-33.2l0 -70.72 10.31 0 0 71.41c0,18.1 -3.68,31.63 -11.05,40.6 -7.38,8.98 -18.51,13.45 -33.38,13.45 -14.21,0 -24.97,-4.36 -32.26,-13.1 -7.28,-8.74 -10.93,-21.59 -10.93,-38.62l0 -73.75z"></path>
   <polygon id="5" class="fil1" points="2566,389.08 2577.37,389.08 2577.37,501.74 2626.6,501.74 2626.6,512.41 2566,512.41 "></polygon>
   <polygon id="6" class="fil1" points="2613.39,389.08 2696.92,389.08 2696.92,399.74 2660.84,399.74 2660.84,512.41 2649.47,512.41 2649.47,399.74 2613.39,399.74 "></polygon>
   <path id="7" class="fil1" d="M2762.08 397.07c-12.68,0 -22.81,4.86 -30.36,14.54 -7.58,9.68 -11.37,22.65 -11.37,38.89 0,16.27 3.79,29.27 11.37,38.98 7.56,9.71 17.69,14.57 30.36,14.57 12.64,0 22.77,-4.86 30.39,-14.57 7.6,-9.72 11.39,-22.72 11.39,-38.98 0,-16.23 -3.79,-29.2 -11.39,-38.89 -7.62,-9.68 -17.75,-14.54 -30.39,-14.54zm0 -10.13c16.46,0 29.61,5.74 39.38,17.21 9.78,11.5 14.67,27.01 14.67,46.53 0,19.55 -4.89,35.1 -14.67,46.6 -9.76,11.51 -22.91,17.27 -39.38,17.27 -16.56,0 -29.74,-5.78 -39.51,-17.3 -9.78,-11.55 -14.67,-27.07 -14.67,-46.56 0,-19.46 4.89,-34.98 14.67,-46.47 9.77,-11.52 22.95,-17.27 39.51,-17.27z"></path>
   <path id="8" class="fil1" d="M2853.77 399.38l0 45.85 14.16 0c9.34,0 16.62,-2.16 21.86,-6.49 5.24,-4.35 7.88,-10.37 7.88,-18.04 0,-7.17 -2.39,-12.53 -7.23,-16.05 -4.8,-3.53 -12.09,-5.28 -21.89,-5.28l-14.78 0zm-11.37 -10.3l27.37 0c13.24,0 23.28,2.64 30.1,7.93 6.83,5.31 10.25,13.12 10.25,23.49 0,7.67 -2.43,14.16 -7.29,19.38 -4.86,5.24 -11.73,8.8 -20.62,10.63 3.64,0.83 6.66,2.4 9.13,4.74 2.43,2.34 4.85,6.22 7.28,11.67l20.17 45.5 -12.73 0 -18.31 -42.89c-2.25,-5.09 -5,-8.71 -8.23,-10.81 -3.26,-2.11 -7.83,-3.17 -13.66,-3.17l-12.09 0 0 56.87 -11.37 0 0 -123.33z"></path>
   <path id="9" class="fil1" d="M2938.19 389.08l11.37 0 0 123.33 -11.37 0 0 -123.33zm12.94 -42.12l13.19 0 -23.32 30.21 -7.97 0 18.1 -30.21z"></path>
   <path id="10" class="fil1" d="M3025.1 399.32l-27.6 69.19 54.26 0 -26.66 -69.19zm-6.78 -10.25l14.06 0 48.87 123.33 -12.41 0 -13.03 -33.59 -62.94 0 -12.91 33.59 -11.73 0 50.09 -123.33z"></path>
   <path id="11" class="fil1" d="M3158.18 399.21l0 102.54 13.98 0c16.95,0 30.12,-4.5 39.48,-13.47 9.39,-9 14.07,-21.63 14.07,-37.89 0,-16.77 -4.44,-29.5 -13.33,-38.18 -8.89,-8.67 -21.98,-13 -39.28,-13l-14.93 0zm-11.37 -10.13l23.43 0c22.24,0 39.13,5.18 50.65,15.54 11.51,10.34 17.27,25.48 17.27,45.38 0,19.55 -5.9,34.86 -17.69,45.88 -11.76,11.01 -28.17,16.53 -49.17,16.53l-24.49 0 0 -123.33z"></path>
   <polygon id="12" class="fil1" points="3263.6,389.08 3323.67,389.08 3323.67,398.85 3274.98,398.85 3274.98,443.28 3321.01,443.28 3321.01,453.58 3274.98,453.58 3274.98,501.74 3324.74,501.74 3324.74,512.41 3263.6,512.41 "></polygon>
   <path id="13" class="fil1" d="M3450.66 397.07c-12.68,0 -22.81,4.86 -30.36,14.54 -7.58,9.68 -11.37,22.65 -11.37,38.89 0,16.27 3.79,29.27 11.37,38.98 7.56,9.71 17.69,14.57 30.36,14.57 12.64,0 22.77,-4.86 30.39,-14.57 7.61,-9.72 11.4,-22.72 11.4,-38.98 0,-16.23 -3.79,-29.2 -11.4,-38.89 -7.62,-9.68 -17.75,-14.54 -30.39,-14.54zm0 -10.13c16.46,0 29.61,5.74 39.39,17.21 9.78,11.5 14.67,27.01 14.67,46.53 0,19.55 -4.89,35.1 -14.67,46.6 -9.77,11.51 -22.92,17.27 -39.39,17.27 -16.56,0 -29.74,-5.78 -39.51,-17.3 -9.78,-11.55 -14.67,-27.07 -14.67,-46.56 0,-19.46 4.89,-34.98 14.67,-46.47 9.77,-11.52 22.95,-17.27 39.51,-17.27z"></path>
   <path id="14" class="fil1" d="M3542.36 453.23l0 48.52 13.11 0c10.96,0 19.4,-2.1 25.39,-6.28 5.95,-4.2 8.94,-10.09 8.94,-17.68 0,-8.2 -2.64,-14.36 -7.94,-18.42 -5.3,-4.09 -13.27,-6.14 -23.87,-6.14l-15.63 0zm0 -54.02l0 43.71 13.83 0c9.59,0 17.03,-1.92 22.24,-5.77 5.21,-3.85 7.82,-9.34 7.82,-16.44 0,-6.88 -2.48,-12.18 -7.43,-15.91 -4.95,-3.73 -12,-5.59 -21.18,-5.59l-15.28 0zm-11.37 -10.13l26.65 0c12.74,0 22.72,2.69 29.98,8.08 7.25,5.36 10.9,12.77 10.9,22.13 0,7.08 -1.93,12.97 -5.81,17.71 -3.88,4.77 -9.5,8.08 -16.88,9.99 8.65,2.28 15.2,6.07 19.61,11.37 4.41,5.33 6.64,12.14 6.64,20.47 0,10.31 -3.85,18.48 -11.52,24.52 -7.7,6.05 -18.25,9.07 -31.66,9.07l-27.9 0 0 -123.33z"></path>
   <path id="15" class="fil1" d="M3638.67 399.38l0 45.85 14.16 0c9.34,0 16.62,-2.16 21.86,-6.49 5.24,-4.35 7.88,-10.37 7.88,-18.04 0,-7.17 -2.39,-12.53 -7.23,-16.05 -4.8,-3.53 -12.09,-5.28 -21.89,-5.28l-14.78 0zm-11.37 -10.3l27.37 0c13.24,0 23.28,2.64 30.1,7.93 6.83,5.31 10.25,13.12 10.25,23.49 0,7.67 -2.43,14.16 -7.29,19.38 -4.86,5.24 -11.73,8.8 -20.62,10.63 3.64,0.83 6.66,2.4 9.13,4.74 2.43,2.34 4.85,6.22 7.28,11.67l20.17 45.5 -12.73 0 -18.31 -42.89c-2.25,-5.09 -5,-8.71 -8.23,-10.81 -3.26,-2.11 -7.83,-3.17 -13.66,-3.17l-12.09 0 0 56.87 -11.37 0 0 -123.33z"></path>
   <path id="16" class="fil1" d="M3765.57 399.32l-27.6 69.19 54.26 0 -26.66 -69.19zm-6.78 -10.25l14.06 0 48.87 123.33 -12.41 0 -13.03 -33.59 -62.94 0 -12.91 33.59 -11.73 0 50.09 -123.33z"></path>
   <path id="17" class="fil1" d="M3894.62 392.33l-1.65 11.55c-3.47,-1.8 -7.02,-3.14 -10.67,-4.06 -3.64,-0.88 -7.43,-1.33 -11.37,-1.33 -8.44,0 -15.04,1.72 -19.81,5.13 -4.77,3.4 -7.17,8.08 -7.17,14.06 0,7.49 8.03,15.88 24.11,25.07 2.2,1.21 3.89,2.19 5.04,2.87 11.17,6.49 18.46,12 21.8,16.59 3.35,4.56 5.04,10.1 5.04,16.64 0,10.26 -3.64,18.55 -10.9,24.91 -7.26,6.37 -16.77,9.53 -28.5,9.53 -4.82,0 -9.59,-0.47 -14.34,-1.42 -4.73,-0.95 -9.35,-2.37 -13.8,-4.21l1.39 -12.85c5.04,2.73 9.75,4.74 14.19,6.05 4.41,1.3 8.65,1.96 12.71,1.96 8.14,0 14.69,-2.07 19.61,-6.25 4.91,-4.17 7.37,-9.71 7.37,-16.68 0,-8.32 -7.82,-16.96 -23.42,-25.94 -2.43,-1.39 -4.27,-2.46 -5.54,-3.2 -10.78,-6.31 -17.87,-11.77 -21.33,-16.32 -3.43,-4.56 -5.15,-9.95 -5.15,-16.14 0,-9.48 3.41,-16.86 10.19,-22.15 6.82,-5.31 16.41,-7.94 28.79,-7.94 3.76,0 7.55,0.36 11.4,1.04 3.85,0.68 7.85,1.75 12.02,3.11z"></path>
  </g>
 </g>
</svg>